<svg width="50" height="51" viewBox="0 0 50 51" fill="none" xmlns="http://www.w3.org/2000/svg">
<rect y="0.388184" width="50" height="50.0447" rx="8" fill="#23BDEE"/>
<g clip-path="url(#clip0_10_1025)">
<path d="M18.1247 11.6483C17.5823 11.6483 17.1426 12.0884 17.1426 12.6314V14.5974H19.1069V12.6314C19.1069 12.0884 18.6671 11.6483 18.1247 11.6483Z" fill="white"/>
<path d="M31.8747 11.6483C31.3323 11.6483 30.8926 12.0884 30.8926 12.6314V14.5974H32.8568V12.6314C32.8569 12.0884 32.4172 11.6483 31.8747 11.6483Z" fill="white"/>
<path d="M35.8036 14.5974H32.8571V18.5295C32.8571 19.0724 32.4174 19.5126 31.875 19.5126C31.3325 19.5126 30.8928 19.0724 30.8928 18.5295V14.5974H19.1071V18.5295C19.1071 19.0724 18.6674 19.5126 18.125 19.5126C17.5825 19.5126 17.1428 19.0724 17.1428 18.5295V14.5974H14.1964C12.5692 14.5974 11.25 15.9178 11.25 17.5465V36.2239C11.25 37.8526 12.5692 39.173 14.1964 39.173H35.8036C37.4308 39.173 38.75 37.8526 38.75 36.2239V17.5465C38.75 15.9178 37.4308 14.5974 35.8036 14.5974ZM36.7857 36.2239C36.7857 36.7668 36.346 37.2069 35.8035 37.2069H14.1964C13.654 37.2069 13.2143 36.7668 13.2143 36.2239V23.4446H36.7857V36.2239Z" fill="white"/>
<path d="M19.1076 25.4106H17.1433C16.6009 25.4106 16.1611 25.8508 16.1611 26.3937C16.1611 26.9366 16.6009 27.3767 17.1433 27.3767H19.1076C19.65 27.3767 20.0897 26.9366 20.0897 26.3937C20.0897 25.8508 19.65 25.4106 19.1076 25.4106Z" fill="white"/>
<path d="M25.9826 25.4106H24.0183C23.4759 25.4106 23.0361 25.8508 23.0361 26.3937C23.0361 26.9366 23.4759 27.3767 24.0183 27.3767H25.9826C26.525 27.3767 26.9647 26.9366 26.9647 26.3937C26.9647 25.8508 26.525 25.4106 25.9826 25.4106Z" fill="white"/>
<path d="M32.8576 25.4106H30.8933C30.3509 25.4106 29.9111 25.8508 29.9111 26.3937C29.9111 26.9366 30.3509 27.3767 30.8933 27.3767H32.8576C33.4 27.3767 33.8397 26.9366 33.8397 26.3937C33.8397 25.8508 33.3999 25.4106 32.8576 25.4106Z" fill="white"/>
<path d="M19.1076 29.3427H17.1433C16.6009 29.3427 16.1611 29.7828 16.1611 30.3257C16.1611 30.8686 16.6009 31.3087 17.1433 31.3087H19.1076C19.65 31.3087 20.0897 30.8686 20.0897 30.3257C20.0897 29.7828 19.65 29.3427 19.1076 29.3427Z" fill="white"/>
<path d="M25.9826 29.3427H24.0183C23.4759 29.3427 23.0361 29.7828 23.0361 30.3257C23.0361 30.8686 23.4759 31.3087 24.0183 31.3087H25.9826C26.525 31.3087 26.9647 30.8686 26.9647 30.3257C26.9647 29.7828 26.525 29.3427 25.9826 29.3427Z" fill="white"/>
<path d="M32.8576 29.3427H30.8933C30.3509 29.3427 29.9111 29.7828 29.9111 30.3257C29.9111 30.8686 30.3509 31.3087 30.8933 31.3087H32.8576C33.4 31.3087 33.8397 30.8686 33.8397 30.3257C33.8397 29.7828 33.3999 29.3427 32.8576 29.3427Z" fill="white"/>
<path d="M19.1076 33.2748H17.1433C16.6009 33.2748 16.1611 33.7149 16.1611 34.2578C16.1611 34.8007 16.6009 35.2408 17.1433 35.2408H19.1076C19.65 35.2408 20.0897 34.8007 20.0897 34.2578C20.0897 33.7148 19.65 33.2748 19.1076 33.2748Z" fill="white"/>
<path d="M25.9826 33.2748H24.0183C23.4759 33.2748 23.0361 33.7149 23.0361 34.2578C23.0361 34.8007 23.4759 35.2409 24.0183 35.2409H25.9826C26.525 35.2409 26.9647 34.8007 26.9647 34.2578C26.9647 33.7149 26.525 33.2748 25.9826 33.2748Z" fill="white"/>
<path d="M32.8576 33.2748H30.8933C30.3509 33.2748 29.9111 33.7149 29.9111 34.2578C29.9111 34.8007 30.3509 35.2409 30.8933 35.2409H32.8576C33.4 35.2409 33.8397 34.8007 33.8397 34.2578C33.8397 33.7149 33.3999 33.2748 32.8576 33.2748Z" fill="white"/>
</g>
<defs>
<clipPath id="clip0_10_1025">
<rect width="27.5" height="27.5246" fill="white" transform="translate(11.25 11.6483)"/>
</clipPath>
</defs>
</svg>
