<svg width="36" height="29" viewBox="0 0 36 29" fill="none" xmlns="http://www.w3.org/2000/svg">
<path d="M34.9453 15.6953C35.5781 15.0625 35.5781 14.0078 34.9453 13.3047L23.1328 1.49219C22.0078 0.4375 20.25 1.21094 20.25 2.6875V9.4375H10.6875C9.70312 9.4375 9 10.2109 9 11.125V17.875C9 18.8594 9.70312 19.5625 10.6875 19.5625H20.25V26.3125C20.25 27.8594 22.0781 28.5625 23.1328 27.5078L34.9453 15.6953ZM13.5 27.1562V24.3438C13.5 23.9219 13.0781 23.5 12.6562 23.5H6.75C5.48438 23.5 4.5 22.5156 4.5 21.25V7.75C4.5 6.55469 5.48438 5.5 6.75 5.5H12.6562C13.0781 5.5 13.5 5.14844 13.5 4.65625V1.84375C13.5 1.42188 13.0781 1 12.6562 1H6.75C3.02344 1 0 4.02344 0 7.75V21.25C0 24.9766 3.02344 28 6.75 28H12.6562C13.0781 28 13.5 27.6484 13.5 27.1562Z" fill="#49BBBD"/>
</svg>
