<svg width="114" height="84" viewBox="0 0 114 84" fill="none" xmlns="http://www.w3.org/2000/svg">
<path d="M45.0371 4.98283L78.0556 38.0309C80.0061 39.9831 80.0061 43.1465 78.0556 45.0988L45.0371 78.1468C43.0841 80.1016 39.9159 80.1016 37.9629 78.1468L4.94438 45.0988C2.99387 43.1465 2.99386 39.9831 4.94438 38.0309L37.9629 4.98284C39.9159 3.02811 43.0841 3.02811 45.0371 4.98283Z" stroke="#00FFF0" stroke-width="2"/>
<path d="M40.144 29.579V33.963H34.192V52.043H28.72V33.963H22.768V29.579H40.144ZM54.7943 52.267C52.6823 52.267 50.7409 51.7763 48.9703 50.795C47.2209 49.8136 45.8236 48.4483 44.7783 46.699C43.7543 44.9283 43.2423 42.9443 43.2423 40.747C43.2423 38.5496 43.7543 36.5763 44.7783 34.827C45.8236 33.0776 47.2209 31.7123 48.9703 30.731C50.7409 29.7496 52.6823 29.259 54.7943 29.259C56.9063 29.259 58.8369 29.7496 60.5863 30.731C62.3569 31.7123 63.7436 33.0776 64.7463 34.827C65.7703 36.5763 66.2823 38.5496 66.2823 40.747C66.2823 42.9443 65.7703 44.9283 64.7463 46.699C63.7223 48.4483 62.3356 49.8136 60.5863 50.795C58.8369 51.7763 56.9063 52.267 54.7943 52.267ZM54.7943 47.275C56.5863 47.275 58.0156 46.6776 59.0823 45.483C60.1703 44.2883 60.7143 42.7096 60.7143 40.747C60.7143 38.763 60.1703 37.1843 59.0823 36.011C58.0156 34.8163 56.5863 34.219 54.7943 34.219C52.9809 34.219 51.5303 34.8056 50.4423 35.979C49.3756 37.1523 48.8423 38.7416 48.8423 40.747C48.8423 42.731 49.3756 44.3203 50.4423 45.515C51.5303 46.6883 52.9809 47.275 54.7943 47.275ZM86.7665 29.579V33.963H80.8145V52.043H75.3425V33.963H69.3905V29.579H86.7665ZM89.8647 40.779C89.8647 38.5603 90.3447 36.587 91.3047 34.859C92.2647 33.1096 93.5981 31.755 95.3047 30.795C97.0327 29.8136 98.9847 29.323 101.161 29.323C103.827 29.323 106.11 30.027 108.009 31.435C109.907 32.843 111.177 34.763 111.817 37.195H105.801C105.353 36.2563 104.713 35.5416 103.881 35.051C103.07 34.5603 102.142 34.315 101.097 34.315C99.4114 34.315 98.0461 34.9016 97.0007 36.075C95.9554 37.2483 95.4327 38.8163 95.4327 40.779C95.4327 42.7416 95.9554 44.3096 97.0007 45.483C98.0461 46.6563 99.4114 47.243 101.097 47.243C102.142 47.243 103.07 46.9976 103.881 46.507C104.713 46.0163 105.353 45.3016 105.801 44.363H111.817C111.177 46.795 109.907 48.715 108.009 50.123C106.11 51.5096 103.827 52.203 101.161 52.203C98.9847 52.203 97.0327 51.723 95.3047 50.763C93.5981 49.7816 92.2647 48.427 91.3047 46.699C90.3447 44.971 89.8647 42.9976 89.8647 40.779Z" fill="white"/>
</svg>
