<svg width="25" height="37" viewBox="0 0 25 37" fill="none" xmlns="http://www.w3.org/2000/svg">
<path d="M12.375 25.25C16.1016 25.25 19.125 22.2969 19.125 18.5V7.25C19.125 3.52344 16.1016 0.5 12.375 0.5C8.57812 0.5 5.625 3.52344 5.625 7.25V18.5C5.625 22.2969 8.57812 25.25 12.375 25.25ZM23.625 14H22.5C21.8672 14 21.375 14.5625 21.375 15.125V18.5C21.375 23.7734 16.8047 27.9922 11.4609 27.5C6.75 27.0078 3.375 22.8594 3.375 18.1484V15.125C3.375 14.5625 2.8125 14 2.25 14H1.125C0.492188 14 0 14.5625 0 15.125V18.0078C0 24.2656 4.42969 29.8906 10.6875 30.7344V33.125H6.75C6.11719 33.125 5.625 33.6875 5.625 34.25V35.375C5.625 36.0078 6.11719 36.5 6.75 36.5H18C18.5625 36.5 19.125 36.0078 19.125 35.375V34.25C19.125 33.6875 18.5625 33.125 18 33.125H14.0625V30.8047C20.0391 29.9609 24.75 24.7578 24.75 18.5V15.125C24.75 14.5625 24.1875 14 23.625 14Z" fill="#29B9E7"/>
</svg>
