<svg width="52" height="52" viewBox="0 0 52 52" fill="none" xmlns="http://www.w3.org/2000/svg">
<path d="M2.97386 25.6819L6.88957 32.084C7.28057 32.7839 8.17257 33.0908 8.97091 32.8002L16.9563 29.6954C17.6552 29.4038 18.0597 28.7116 18.0172 27.9654L17.5237 22.4416C23.1111 20.5069 29.4255 20.5182 35.1232 22.6119L34.5229 28.1251C34.466 28.8704 34.857 29.5703 35.5501 29.8753L43.4739 33.1341C44.2665 33.4401 45.115 33.1002 45.5687 32.4583L49.6076 26.1331C50.012 25.4409 49.9203 24.6445 49.3295 24.0421C36.7253 11.1916 16.0936 10.9423 3.19292 23.5957C2.64075 24.1373 2.58286 24.982 2.97386 25.6819Z" fill="#EE5B90"/>
</svg>
